<?xml version="1.0" encoding="UTF-8" standalone="no"?>
<svg
   viewBox="0 0 500 420"
   width="500"
   height="420"
   version="1.1"
   id="svg13"
   sodipodi:docname="Stealthchanger_Dock_logo.svg"
   inkscape:version="1.3.2 (091e20e, 2023-11-25)"
   inkscape:export-filename="Stealthchanger_Dock_logo.png"
   inkscape:export-xdpi="96"
   inkscape:export-ydpi="96"
   xmlns:inkscape="http://www.inkscape.org/namespaces/inkscape"
   xmlns:sodipodi="http://sodipodi.sourceforge.net/DTD/sodipodi-0.dtd"
   xmlns="http://www.w3.org/2000/svg"
   xmlns:svg="http://www.w3.org/2000/svg">
  <sodipodi:namedview
     id="namedview13"
     pagecolor="#ffffff"
     bordercolor="#000000"
     borderopacity="0.25"
     inkscape:showpageshadow="2"
     inkscape:pageopacity="0.0"
     inkscape:pagecheckerboard="0"
     inkscape:deskcolor="#d1d1d1"
     inkscape:zoom="1.4576538"
     inkscape:cx="506.97909"
     inkscape:cy="155.04367"
     inkscape:window-width="1920"
     inkscape:window-height="1027"
     inkscape:window-x="1920"
     inkscape:window-y="25"
     inkscape:window-maximized="0"
     inkscape:current-layer="g13" />
  <desc
     id="desc1">Stealthchanger Dock logo.dxf - scale = 1.000000, origin = (0.000000, 0.000000), method = manual</desc>
  <defs
     id="defs4">
    <marker
       id="DistanceX"
       orient="auto"
       refX="0"
       refY="0"
       style="overflow:visible">
      <path
         d="M 3,-3 -3,3 M 0,-5 V 5"
         style="stroke:#000000;stroke-width:0.5"
         id="path1" />
    </marker>
    <pattern
       id="Hatch"
       patternUnits="userSpaceOnUse"
       width="8"
       height="8"
       x="0"
       y="0">
      <path
         d="M8 4 l-4,4"
         stroke="#000000"
         stroke-width="0.25"
         linecap="square"
         id="path2" />
      <path
         d="M6 2 l-4,4"
         stroke="#000000"
         stroke-width="0.25"
         linecap="square"
         id="path3" />
      <path
         d="M4 0 l-4,4"
         stroke="#000000"
         stroke-width="0.25"
         linecap="square"
         id="path4" />
    </pattern>
    <symbol
       id="*MODEL_SPACE" />
    <symbol
       id="*PAPER_SPACE" />
  </defs>
  <g
     inkscape:groupmode="layer"
     inkscape:label="0"
     id="g13">
    <path
       d="M 400.64676,129.28215 258.91448,47.452952 117.18219,129.28215 88.835739,112.91625 258.91448,14.721252 428.99322,112.91625 v 98.195 h 56.69291 l -56.69291,56.6929 -28.34646,-16.3658 z"
       style="fill:#db3f38;fill-opacity:1;stroke:#db3f38;stroke-opacity:1"
       id="path5" />
    <path
       d="m 88.835739,211.11125 h -56.69292 l 56.69292,-56.6929 28.346451,16.3658 v 122.1563 l 141.73229,81.8292 141.73228,-81.8292 28.34646,16.3658 -170.07874,98.195 -170.078741,-98.195 z"
       style="fill:#db3f38;fill-opacity:1;stroke:#db3f38;stroke-opacity:1"
       id="path6" />
    <path
       d="M 338.40252,119.45323 H 177.02326 l -5.19017,5.19335 v 15.37669 l 5.18749,5.18561 h 24.92402 v 54.8269 l 8.10561,4.37703 9.05921,-4.89193 v -54.312 h 30.03844 v 58.68902 l 17.16481,-9.269 v -49.42002 h 30.03843 v 53.79704 l 9.05921,-4.89197 8.10562,4.37701 v -53.28208 h 24.88803 l 5.15107,-5.15095 V 124.6062 Z"
       style="fill:#db3f38;fill-opacity:1;stroke:#db3f38;stroke-width:0.504614;stroke-opacity:1"
       id="path10" />
    <path
       d="m 171.83309,210.53711 19.07005,-10.28837 19.07006,10.28837 19.07005,-10.28837 19.07006,10.28837 19.07006,-10.28837 19.07006,10.28837 19.07005,-10.28837 19.07006,10.28837 19.07005,-10.28837 v 19.07197 l -19.07005,10.28842 -19.07006,-10.28842 -19.07005,10.28842 -19.07006,-10.28842 -19.07006,10.28842 -19.07006,-10.28842 -19.07005,10.28842 -19.07006,-10.28842 -19.07005,10.28842 z"
       style="fill:#db3f38;fill-opacity:1;stroke:#db3f38;stroke-width:0.504614;stroke-opacity:1"
       id="path11" />
    <path
       d="m 171.83309,248.68116 19.07005,-10.28842 19.07006,10.28842 19.07005,-10.28842 19.07006,10.28842 19.07006,-10.28842 19.07006,10.28842 19.07005,-10.28842 19.07006,10.28842 19.07005,-10.28842 v 19.07204 l -19.07005,10.28837 -19.07006,-10.28837 -19.07005,10.28837 -19.07006,-10.28837 -19.07006,10.28837 -19.07006,-10.28837 -19.07005,10.28837 -19.07006,-10.28837 -19.07005,10.28837 z"
       style="fill:#db3f38;fill-opacity:1;stroke:#db3f38;stroke-width:0.504614;stroke-opacity:1"
       id="path12" />
    <path
       d="m 171.83309,286.82518 19.07005,-10.28836 19.07006,10.28836 19.07005,-10.28836 19.07006,10.28836 19.07006,-10.28836 19.07006,10.28836 19.07005,-10.28836 19.07006,10.28836 19.07005,-10.28836 v 19.07197 l -19.07005,10.28842 -19.07006,-10.28842 -19.07005,10.28842 -19.07006,-10.28842 -19.07006,10.28842 -19.07006,-10.28842 -19.07005,10.28842 -19.07006,-10.28842 -19.07005,10.28842 z"
       style="fill:#db3f38;fill-opacity:1;stroke:#db3f38;stroke-width:0.504614;stroke-opacity:1"
       id="path13" />
  </g>
</svg>
