<?xml version="1.0" encoding="UTF-8" standalone="no"?>
<svg
   viewBox="0 0 920 420"
   width="920"
   height="420"
   version="1.1"
   id="svg13"
   sodipodi:docname="Stealthchanger_Dock_logo.svg"
   inkscape:version="1.3.2 (091e20e, 2023-11-25, custom)"
   xmlns:inkscape="http://www.inkscape.org/namespaces/inkscape"
   xmlns:sodipodi="http://sodipodi.sourceforge.net/DTD/sodipodi-0.dtd"
   xmlns="http://www.w3.org/2000/svg"
   xmlns:svg="http://www.w3.org/2000/svg">
  <sodipodi:namedview
     id="namedview13"
     pagecolor="#ffffff"
     bordercolor="#000000"
     borderopacity="0.25"
     inkscape:showpageshadow="2"
     inkscape:pageopacity="0.0"
     inkscape:pagecheckerboard="0"
     inkscape:deskcolor="#d1d1d1"
     inkscape:zoom="1.4576538"
     inkscape:cx="506.63606"
     inkscape:cy="155.04367"
     inkscape:window-width="2558"
     inkscape:window-height="1360"
     inkscape:window-x="1273"
     inkscape:window-y="0"
     inkscape:window-maximized="0"
     inkscape:current-layer="g13" />
  <desc
     id="desc1">Stealthchanger Dock logo.dxf - scale = 1.000000, origin = (0.000000, 0.000000), method = manual</desc>
  <defs
     id="defs4">
    <marker
       id="DistanceX"
       orient="auto"
       refX="0"
       refY="0"
       style="overflow:visible">
      <path
         d="M 3,-3 -3,3 M 0,-5 V 5"
         style="stroke:#000000;stroke-width:0.5"
         id="path1" />
    </marker>
    <pattern
       id="Hatch"
       patternUnits="userSpaceOnUse"
       width="8"
       height="8"
       x="0"
       y="0">
      <path
         d="M8 4 l-4,4"
         stroke="#000000"
         stroke-width="0.25"
         linecap="square"
         id="path2" />
      <path
         d="M6 2 l-4,4"
         stroke="#000000"
         stroke-width="0.25"
         linecap="square"
         id="path3" />
      <path
         d="M4 0 l-4,4"
         stroke="#000000"
         stroke-width="0.25"
         linecap="square"
         id="path4" />
    </pattern>
    <symbol
       id="*MODEL_SPACE" />
    <symbol
       id="*PAPER_SPACE" />
  </defs>
  <g
     inkscape:groupmode="layer"
     inkscape:label="0"
     id="g13">
    <path
       d="M 806.77886,129.96819 665.04658,48.138986 523.31429,129.96819 494.96784,113.60229 665.04658,15.407286 835.12532,113.60229 v 98.195 h 56.69291 l -56.69291,56.6929 -28.34646,-16.3658 z"
       style="fill:#db3f38;stroke:#db3f38;fill-opacity:1;stroke-opacity:1"
       id="path5" />
    <path
       d="m 494.96784,211.79729 h -56.69292 l 56.69292,-56.6929 28.34645,16.3658 v 122.1563 l 141.73229,81.8292 141.73228,-81.8292 28.34646,16.3658 -170.07874,98.195 -170.07874,-98.195 z"
       style="fill:#db3f38;stroke:#db3f38;fill-opacity:1;stroke-opacity:1"
       id="path6" />
    <path
       d="m 623.81537,309.99229 h -41.23121 l 123.69363,-196.39 H 747.509 Z"
       style="fill:#db3f38;stroke:#db3f38;fill-opacity:1;stroke-opacity:1"
       id="path7" />
    <path
       d="m 561.96855,211.79729 h 41.23121 l 61.84682,-98.195 h -41.23121 z"
       style="fill:#db3f38;stroke:#db3f38;fill-opacity:1;stroke-opacity:1"
       id="path8" />
    <path
       d="m 665.04658,309.99229 h 41.23121 l 61.84681,-98.195 h -41.23121 z"
       style="fill:#db3f38;stroke:#db3f38;fill-opacity:1;stroke-opacity:1"
       id="path9" />
    <path
       d="M 374.25859,25.874086 H 54.451161 l -10.28545,10.2917 v 30.4722 l 10.28014,10.2764 H 103.83811 V 185.56559 l 16.063,8.674 17.95275,-9.6944 V 76.914386 h 59.52756 V 193.21919 l 34.01575,-18.3685 V 76.914386 h 59.52756 V 183.52469 l 17.95275,-9.6945 16.063,8.674 V 76.914386 h 49.32097 l 10.20792,-10.2077 v -30.6209 z"
       style="fill:#db3f38;stroke:#db3f38;fill-opacity:1;stroke-opacity:1"
       id="path10" />
    <path
       d="m 44.165711,206.37619 37.791379,-20.3886 37.79139,20.3886 37.79138,-20.3886 37.79139,20.3886 37.79139,-20.3886 37.79138,20.3886 37.79139,-20.3886 37.79138,20.3886 37.79139,-20.3886 v 37.7952 l -37.79139,20.3887 -37.79138,-20.3887 -37.79139,20.3887 -37.79138,-20.3887 -37.79139,20.3887 -37.79139,-20.3887 -37.79138,20.3887 -37.79139,-20.3887 -37.791379,20.3887 z"
       style="fill:#db3f38;stroke:#db3f38;fill-opacity:1;stroke-opacity:1"
       id="path11" />
    <path
       d="m 44.165711,281.96679 37.791379,-20.3887 37.79139,20.3887 37.79138,-20.3887 37.79139,20.3887 37.79139,-20.3887 37.79138,20.3887 37.79139,-20.3887 37.79138,20.3887 37.79139,-20.3887 v 37.7953 l -37.79139,20.3886 -37.79138,-20.3886 -37.79139,20.3886 -37.79138,-20.3886 -37.79139,20.3886 -37.79139,-20.3886 -37.79138,20.3886 -37.79139,-20.3886 -37.791379,20.3886 z"
       style="fill:#db3f38;stroke:#db3f38;fill-opacity:1;stroke-opacity:1"
       id="path12" />
    <path
       d="m 44.165711,357.55729 37.791379,-20.3886 37.79139,20.3886 37.79138,-20.3886 37.79139,20.3886 37.79139,-20.3886 37.79138,20.3886 37.79139,-20.3886 37.79138,20.3886 37.79139,-20.3886 v 37.7952 l -37.79139,20.3887 -37.79138,-20.3887 -37.79139,20.3887 -37.79138,-20.3887 -37.79139,20.3887 -37.79139,-20.3887 -37.79138,20.3887 -37.79139,-20.3887 -37.791379,20.3887 z"
       style="fill:#db3f38;stroke:#db3f38;fill-opacity:1;stroke-opacity:1"
       id="path13" />
  </g>
</svg>
